<svg id="Capa_1" data-name="Capa 1" xmlns="http://www.w3.org/2000/svg" viewBox="0 0 497.51 187.8"><defs><style>.cls-1{fill:#1a2741;}.cls-2{fill:#4ab7f7;}</style></defs><title>hoteldirectX</title><path class="cls-1" d="M72.89,115.39H65.28V89.94H35.16v25.45H27.55V59.47h7.61V84.4H65.28V59.47h7.61Z"/><path class="cls-1" d="M101.46,75.23a20.18,20.18,0,0,1,7.82,1.45,16.58,16.58,0,0,1,5.93,4.09A18.08,18.08,0,0,1,119,87.19,27.92,27.92,0,0,1,119,104a18.08,18.08,0,0,1-3.75,6.4,16.3,16.3,0,0,1-5.93,4.08,22.27,22.27,0,0,1-15.65,0,16.47,16.47,0,0,1-5.95-4.08A18.14,18.14,0,0,1,83.9,104a27.32,27.32,0,0,1,0-16.84,18.14,18.14,0,0,1,3.78-6.42,16.74,16.74,0,0,1,5.95-4.09A20.19,20.19,0,0,1,101.46,75.23Zm0,35.28q5.85,0,8.74-3.92t2.88-11q0-7.06-2.88-11t-8.74-3.94a12,12,0,0,0-5.15,1,9.57,9.57,0,0,0-3.65,2.93,12.86,12.86,0,0,0-2.19,4.7,25.26,25.26,0,0,0-.72,6.3,25,25,0,0,0,.72,6.28,12.79,12.79,0,0,0,2.19,4.67,9.59,9.59,0,0,0,3.65,2.9A12,12,0,0,0,101.46,110.51Z"/><path class="cls-1" d="M140.83,116q-4.68,0-7.2-2.61t-2.52-7.54V81.67h-4.76a1.53,1.53,0,0,1-1-.37,1.43,1.43,0,0,1-.43-1.15V77.38l6.48-.82L133,64.35a1.5,1.5,0,0,1,.5-1,1.61,1.61,0,0,1,1.1-.37h3.51V76.64h11.31v5H138.06V105.4a5,5,0,0,0,1.21,3.7,4.19,4.19,0,0,0,3.12,1.21,5.36,5.36,0,0,0,1.89-.29,9.08,9.08,0,0,0,1.39-.64c.39-.24.72-.45,1-.65a1.37,1.37,0,0,1,.72-.29,1.2,1.2,0,0,1,1,.66l2,3.32a12.83,12.83,0,0,1-4.33,2.63A14.68,14.68,0,0,1,140.83,116Z"/><path class="cls-1" d="M173.6,75.23a17.72,17.72,0,0,1,6.56,1.19,14.82,14.82,0,0,1,5.19,3.44,15.4,15.4,0,0,1,3.41,5.54A21.39,21.39,0,0,1,190,92.91a4.43,4.43,0,0,1-.35,2.18,1.43,1.43,0,0,1-1.32.55H162a21.93,21.93,0,0,0,1,6.52,13.14,13.14,0,0,0,2.58,4.62,10.22,10.22,0,0,0,3.9,2.77,13.43,13.43,0,0,0,5.07.92,14.69,14.69,0,0,0,4.51-.61,21,21,0,0,0,3.26-1.3,25.8,25.8,0,0,0,2.28-1.31,3.07,3.07,0,0,1,1.58-.61,1.56,1.56,0,0,1,1.33.67l2,2.53a13.07,13.07,0,0,1-3.09,2.72,19,19,0,0,1-3.84,1.89,25.3,25.3,0,0,1-4.23,1.11,25.58,25.58,0,0,1-4.33.37,20.21,20.21,0,0,1-7.56-1.38,16.72,16.72,0,0,1-6-4.06,18.77,18.77,0,0,1-3.92-6.62,27,27,0,0,1-1.4-9.05,22.86,22.86,0,0,1,1.27-7.72,18.22,18.22,0,0,1,3.64-6.23,16.88,16.88,0,0,1,5.82-4.13A18.92,18.92,0,0,1,173.6,75.23Zm.16,5.11a10.66,10.66,0,0,0-7.92,2.91,13.69,13.69,0,0,0-3.59,8.06h21.5a14.15,14.15,0,0,0-.66-4.43,10.06,10.06,0,0,0-2-3.47A8.83,8.83,0,0,0,178,81.14,10.69,10.69,0,0,0,173.76,80.34Z"/><path class="cls-1" d="M206.58,57.91v57.48h-7V57.91Z"/><path class="cls-1" d="M246.65,115.39a1.77,1.77,0,0,1-1.87-1.45l-.63-4.8a20.81,20.81,0,0,1-5.79,4.94,14.89,14.89,0,0,1-7.47,1.85,14.16,14.16,0,0,1-6.17-1.31,12.74,12.74,0,0,1-4.72-3.84,18.29,18.29,0,0,1-3-6.32,32.18,32.18,0,0,1-1.06-8.7,27.28,27.28,0,0,1,1.17-8.14,19.73,19.73,0,0,1,3.38-6.53A15.46,15.46,0,0,1,233,75.16a14.33,14.33,0,0,1,6.21,1.22,14.83,14.83,0,0,1,4.6,3.46V57.91h6.95v57.48Zm-13.46-5.08a11.21,11.21,0,0,0,5.95-1.56,17.17,17.17,0,0,0,4.7-4.41V85.22a11,11,0,0,0-4.19-3.61,12.14,12.14,0,0,0-5.06-1,10,10,0,0,0-8.5,3.94q-3,3.95-3,11.24a28.69,28.69,0,0,0,.66,6.61,12.78,12.78,0,0,0,2,4.53,7.57,7.57,0,0,0,3.16,2.59A10.52,10.52,0,0,0,233.19,110.31Z"/><path class="cls-1" d="M271.74,63.45a4.43,4.43,0,0,1-.41,1.89,5.34,5.34,0,0,1-1.09,1.56A5.16,5.16,0,0,1,268.66,68a4.76,4.76,0,0,1-1.91.39,4.65,4.65,0,0,1-1.9-.39,5.2,5.2,0,0,1-1.56-1.08,5.1,5.1,0,0,1-1.07-1.56,4.57,4.57,0,0,1-.39-1.89,4.86,4.86,0,0,1,.39-1.93,5,5,0,0,1,1.07-1.6,5.2,5.2,0,0,1,1.56-1.08,4.65,4.65,0,0,1,1.9-.39,4.76,4.76,0,0,1,1.91.39,5.16,5.16,0,0,1,1.58,1.08,5.27,5.27,0,0,1,1.09,1.6A4.71,4.71,0,0,1,271.74,63.45Zm-1.56,12.41v39.53h-6.95V75.86Z"/><path class="cls-1" d="M282.43,115.39V75.86h4a2.16,2.16,0,0,1,1.56.43,2.62,2.62,0,0,1,.59,1.48l.47,6.16a18,18,0,0,1,5-6.45,11.05,11.05,0,0,1,7-2.32,10.87,10.87,0,0,1,3,.37,10.31,10.31,0,0,1,2.46,1l-.9,5.19a1.16,1.16,0,0,1-1.21,1,6,6,0,0,1-1.68-.37,10.77,10.77,0,0,0-3.16-.37,9,9,0,0,0-6.06,2.11,15.8,15.8,0,0,0-4.08,6.13v25.17Z"/><path class="cls-1" d="M329.53,75.23a17.66,17.66,0,0,1,6.55,1.19,14.64,14.64,0,0,1,5.19,3.44,15.56,15.56,0,0,1,3.42,5.54,21.39,21.39,0,0,1,1.23,7.51,4.56,4.56,0,0,1-.35,2.18,1.46,1.46,0,0,1-1.33.55h-26.3a21.93,21.93,0,0,0,1,6.52,13.46,13.46,0,0,0,2.58,4.62,10.22,10.22,0,0,0,3.9,2.77,13.43,13.43,0,0,0,5.07.92,14.64,14.64,0,0,0,4.51-.61,21,21,0,0,0,3.26-1.3,25.8,25.8,0,0,0,2.28-1.31,3.07,3.07,0,0,1,1.58-.61,1.54,1.54,0,0,1,1.33.67l2,2.53a13.22,13.22,0,0,1-3.08,2.72,19.38,19.38,0,0,1-3.85,1.89,24.8,24.8,0,0,1-4.23,1.11,25.58,25.58,0,0,1-4.33.37,20.16,20.16,0,0,1-7.55-1.38,16.72,16.72,0,0,1-6-4.06,18.48,18.48,0,0,1-3.92-6.62,26.75,26.75,0,0,1-1.41-9.05,23.11,23.11,0,0,1,1.27-7.72A18.24,18.24,0,0,1,316,80.87a16.84,16.84,0,0,1,5.81-4.13A19,19,0,0,1,329.53,75.23Zm.15,5.11a10.67,10.67,0,0,0-7.92,2.91,13.75,13.75,0,0,0-3.59,8.06h21.5a14.15,14.15,0,0,0-.66-4.43,9.75,9.75,0,0,0-1.95-3.47,8.83,8.83,0,0,0-3.14-2.27A10.69,10.69,0,0,0,329.68,80.34Z"/><path class="cls-1" d="M381.74,82.88a2.87,2.87,0,0,1-.63.66,1.41,1.41,0,0,1-.89.24,2.19,2.19,0,0,1-1.27-.49c-.46-.32-1-.68-1.74-1.07a14.8,14.8,0,0,0-2.55-1.08,12.29,12.29,0,0,0-3.69-.48,12,12,0,0,0-5.11,1,9.88,9.88,0,0,0-3.73,3,13.54,13.54,0,0,0-2.26,4.72,23.24,23.24,0,0,0-.76,6.2,22.5,22.5,0,0,0,.82,6.38,13.65,13.65,0,0,0,2.3,4.68,9.71,9.71,0,0,0,3.61,2.89,11,11,0,0,0,4.78,1,12,12,0,0,0,4.17-.61,12.4,12.4,0,0,0,2.73-1.34,22,22,0,0,0,1.8-1.35,2.2,2.2,0,0,1,1.4-.61,1.49,1.49,0,0,1,1.33.67l1.95,2.53a15,15,0,0,1-6.44,4.63,22.9,22.9,0,0,1-8.15,1.46,17.29,17.29,0,0,1-6.89-1.36,15.68,15.68,0,0,1-5.52-4,18.89,18.89,0,0,1-3.69-6.38A25.64,25.64,0,0,1,352,95.6a26.23,26.23,0,0,1,1.22-8.15,18.41,18.41,0,0,1,3.6-6.46,16.24,16.24,0,0,1,5.83-4.24,19.72,19.72,0,0,1,8-1.52,18.68,18.68,0,0,1,7.33,1.35,17.51,17.51,0,0,1,5.66,3.8Z"/><path class="cls-1" d="M403.2,116q-4.68,0-7.2-2.61t-2.52-7.54V81.67h-4.76a1.53,1.53,0,0,1-1.05-.37,1.43,1.43,0,0,1-.43-1.15V77.38l6.48-.82,1.6-12.21a1.5,1.5,0,0,1,.5-1,1.61,1.61,0,0,1,1.1-.37h3.51V76.64h11.31v5H400.43V105.4a5,5,0,0,0,1.21,3.7,4.19,4.19,0,0,0,3.12,1.21,5.36,5.36,0,0,0,1.89-.29,8.66,8.66,0,0,0,1.39-.64c.39-.24.72-.45,1-.65a1.37,1.37,0,0,1,.72-.29,1.2,1.2,0,0,1,1,.66l2,3.32a12.83,12.83,0,0,1-4.33,2.63A14.68,14.68,0,0,1,403.2,116Z"/><path class="cls-1" d="M433.32,86.16l-17.6-27.63h13.19a4.1,4.1,0,0,1,1.89.33A3,3,0,0,1,431.88,60l11.31,19.16a7.94,7.94,0,0,1,.45-1c.17-.31.36-.64.57-1l9.91-17a3,3,0,0,1,2.65-1.64h12.65l-17.84,27,18.23,29.82H456.62a3.27,3.27,0,0,1-2.09-.63,4.73,4.73,0,0,1-1.27-1.48l-11.39-19.9a8.9,8.9,0,0,1-.7,1.48l-10.62,18.42a5.37,5.37,0,0,1-1.25,1.46,3,3,0,0,1-1.95.65H415Z"/><polygon class="cls-2" points="469.77 156.6 389.83 156.37 397.16 144.54 469.61 144.71 469.77 156.6"/></svg>